<svg width="12" height="12" viewBox="0 0 12 12" fill="none" xmlns="http://www.w3.org/2000/svg">
<path d="M10.4743 2.40227L8.2624 4.04682C8.20313 4.09154 8.13423 4.12179 8.0612 4.13516C7.98818 4.14853 7.91304 4.14466 7.84177 4.12385C7.77051 4.10304 7.70509 4.06586 7.65073 4.01529C7.59637 3.96471 7.55457 3.90214 7.52866 3.83255L6.48965 1.0202C6.45882 0.906721 6.39151 0.806541 6.29811 0.735119C6.20471 0.663696 6.0904 0.625 5.97283 0.625C5.85526 0.625 5.74095 0.663696 5.64755 0.735119C5.55415 0.806541 5.48683 0.906721 5.456 1.0202L4.39557 3.81112C4.36922 3.87901 4.32768 3.93996 4.27413 3.98929C4.22057 4.03862 4.15643 4.07503 4.08663 4.09572C4.01682 4.1164 3.94321 4.12082 3.87143 4.10863C3.79965 4.09644 3.73162 4.06797 3.67255 4.0254L1.53026 2.48262C1.43943 2.39595 1.32104 2.34395 1.19578 2.33569C1.07052 2.32744 0.946332 2.36346 0.844917 2.43746C0.743502 2.51147 0.6713 2.61875 0.64092 2.74058C0.61054 2.86241 0.623913 2.99105 0.678703 3.10402L2.82099 9.32868C2.86052 9.43935 2.93309 9.53518 3.02889 9.60321C3.12469 9.67125 3.23908 9.70818 3.35656 9.70902H8.55161C8.67043 9.7141 8.78755 9.67948 8.88453 9.61061C8.9815 9.54175 9.0528 9.44256 9.08718 9.32868L11.3259 3.01831C11.3778 2.90559 11.389 2.77834 11.3575 2.65829C11.326 2.53824 11.2538 2.43285 11.1533 2.36012C11.0528 2.28739 10.9301 2.25183 10.8063 2.25952C10.6824 2.26721 10.5651 2.31766 10.4743 2.40227V2.40227ZM7.34121 7.44307H4.66336C4.55682 7.44307 4.45466 7.40074 4.37933 7.3254C4.304 7.25005 4.26168 7.14786 4.26168 7.04131C4.26168 6.93475 4.304 6.83256 4.37933 6.75722C4.45466 6.68187 4.55682 6.63954 4.66336 6.63954H7.34121C7.44775 6.63954 7.54991 6.68187 7.62524 6.75722C7.70057 6.83256 7.74289 6.93475 7.74289 7.04131C7.74289 7.14786 7.70057 7.25005 7.62524 7.3254C7.54991 7.40074 7.44775 7.44307 7.34121 7.44307ZM8.74441 11.375H3.26551C3.15898 11.375 3.05681 11.3327 2.98148 11.2573C2.90615 11.182 2.86384 11.0798 2.86384 10.9732C2.86384 10.8667 2.90615 10.7645 2.98148 10.6891C3.05681 10.6138 3.15898 10.5715 3.26551 10.5715H8.74441C8.85094 10.5715 8.95311 10.6138 9.02844 10.6891C9.10377 10.7645 9.14609 10.8667 9.14609 10.9732C9.14609 11.0798 9.10377 11.182 9.02844 11.2573C8.95311 11.3327 8.85094 11.375 8.74441 11.375Z" fill="#252F4A"/>
</svg>
