<svg width="195" height="32" viewBox="0 0 195 32" fill="none" xmlns="http://www.w3.org/2000/svg">
<mask id="mask0_686_1830" style="mask-type:luminance" maskUnits="userSpaceOnUse" x="0" y="0" width="32" height="32">
<path d="M0 0H32V32H0V0Z" fill="white"/>
</mask>
<g mask="url(#mask0_686_1830)">
<path d="M16 31.999C24.835 31.999 31.999 24.835 31.999 15.999C31.999 7.163 24.836 0 15.999 0C7.163 0 0 7.163 0 16C0 24.835 7.163 31.999 16 31.999Z" fill="#1450A3"/>
<path d="M20.3341 13.296H23.5381C24.3831 13.296 24.8931 14.287 24.4391 15.042L17.0431 27.324C16.9482 27.491 16.8108 27.6298 16.6448 27.7264C16.4788 27.823 16.2902 27.8739 16.0981 27.8739C15.9061 27.8739 15.7175 27.823 15.5515 27.7264C15.3855 27.6298 15.248 27.491 15.1531 27.324L14.9931 27.058L13.5161 24.604L20.3341 13.297V13.296ZM13.7921 22.073C13.7014 22.2318 13.5704 22.3638 13.4122 22.4556C13.2541 22.5474 13.0745 22.5958 12.8916 22.5958C12.7088 22.5958 12.5291 22.5474 12.371 22.4556C12.2129 22.3638 12.0818 22.2318 11.9911 22.073L4.70312 9.97002C4.22712 9.17702 4.76312 8.13802 5.64812 8.13802H8.77312L15.4721 19.288L13.7931 22.073H13.7921ZM27.4931 9.97002L26.1631 12.178H12.4501L11.0701 9.88302C10.6171 9.12702 11.1291 8.13702 11.9721 8.13702H26.5491C27.4351 8.13702 27.9711 9.17702 27.4931 9.96902V9.97002Z" fill="white"/>
</g>
<path d="M47.0881 8.95455H50.1278V19.0966C50.1278 20.0341 49.9171 20.8485 49.4957 21.5398C49.0791 22.2311 48.4991 22.7637 47.7557 23.1378C47.0123 23.5118 46.1482 23.6989 45.1634 23.6989C44.2874 23.6989 43.492 23.545 42.777 23.2372C42.0668 22.9247 41.5033 22.4512 41.0866 21.8168C40.67 21.1776 40.464 20.375 40.4688 19.4091H43.5298C43.5393 19.7926 43.6174 20.1217 43.7642 20.3963C43.9157 20.6662 44.1217 20.8745 44.3821 21.0213C44.6473 21.1634 44.9598 21.2344 45.3196 21.2344C45.6984 21.2344 46.018 21.1539 46.2784 20.9929C46.5436 20.8272 46.7448 20.5857 46.8821 20.2685C47.0194 19.9512 47.0881 19.5606 47.0881 19.0966V8.95455ZM55.5244 23.706C54.8284 23.706 54.2081 23.5852 53.6636 23.3438C53.1191 23.0975 52.6883 22.7353 52.371 22.2571C52.0585 21.7741 51.9023 21.1728 51.9023 20.4531C51.9023 19.8471 52.0135 19.3381 52.2361 18.9261C52.4586 18.5142 52.7616 18.1828 53.1452 17.9318C53.5287 17.6809 53.9643 17.4915 54.452 17.3636C54.9444 17.2358 55.4605 17.1458 56.0003 17.0938C56.6348 17.0275 57.1461 16.9659 57.5344 16.9091C57.9226 16.8475 58.2044 16.7576 58.3795 16.6392C58.5547 16.5208 58.6423 16.3456 58.6423 16.1136V16.071C58.6423 15.6212 58.5003 15.2732 58.2162 15.027C57.9368 14.7808 57.5391 14.6577 57.023 14.6577C56.4785 14.6577 56.0453 14.7784 55.7233 15.0199C55.4013 15.2566 55.1883 15.5549 55.0841 15.9148L52.2858 15.6875C52.4278 15.0246 52.7072 14.4517 53.1239 13.9688C53.5405 13.4811 54.0779 13.107 54.7361 12.8466C55.399 12.5814 56.166 12.4489 57.0372 12.4489C57.6433 12.4489 58.2233 12.5199 58.7773 12.6619C59.336 12.804 59.8308 13.0241 60.2616 13.3224C60.6973 13.6207 61.0405 14.0043 61.2915 14.473C61.5424 14.937 61.6679 15.4934 61.6679 16.142V23.5H58.7986V21.9872H58.7134C58.5382 22.3281 58.3038 22.6288 58.0102 22.8892C57.7167 23.1449 57.3639 23.3461 56.952 23.4929C56.5401 23.6349 56.0642 23.706 55.5244 23.706ZM56.3909 21.6179C56.836 21.6179 57.229 21.5303 57.5699 21.3551C57.9108 21.1752 58.1783 20.9337 58.3724 20.6307C58.5666 20.3277 58.6636 19.9844 58.6636 19.6009V18.4432C58.5689 18.5047 58.4387 18.5616 58.273 18.6136C58.112 18.661 57.9297 18.706 57.7261 18.7486C57.5225 18.7865 57.3189 18.822 57.1153 18.8551C56.9117 18.8835 56.7271 18.9096 56.5614 18.9332C56.2063 18.9853 55.8961 19.0682 55.631 19.1818C55.3658 19.2955 55.1598 19.4493 55.0131 19.6435C54.8663 19.8329 54.7929 20.0696 54.7929 20.3537C54.7929 20.7656 54.942 21.0805 55.2403 21.2983C55.5434 21.5114 55.9269 21.6179 56.3909 21.6179ZM63.8152 23.5V12.5909H66.7484V14.4943H66.8621C67.0609 13.8172 67.3947 13.3059 67.8635 12.9602C68.3322 12.6098 68.872 12.4347 69.4828 12.4347C69.6343 12.4347 69.7977 12.4441 69.9729 12.4631C70.1481 12.482 70.3019 12.508 70.4345 12.5412V15.2259C70.2925 15.1832 70.096 15.1454 69.845 15.1122C69.5941 15.0791 69.3644 15.0625 69.1561 15.0625C68.711 15.0625 68.3133 15.1596 67.9629 15.3537C67.6173 15.5431 67.3427 15.8082 67.1391 16.1491C66.9402 16.4901 66.8408 16.883 66.8408 17.3281V23.5H63.8152ZM82.3013 12.5909L78.4874 23.5H75.0783L71.2643 12.5909H74.4604L76.726 20.3963H76.8396L79.0982 12.5909H82.3013ZM83.6496 23.5V12.5909H86.6751V23.5H83.6496ZM85.1695 11.1847C84.7197 11.1847 84.3338 11.0355 84.0118 10.7372C83.6946 10.4342 83.5359 10.072 83.5359 9.65057C83.5359 9.2339 83.6946 8.87642 84.0118 8.57812C84.3338 8.27509 84.7197 8.12358 85.1695 8.12358C85.6193 8.12358 86.0028 8.27509 86.32 8.57812C86.642 8.87642 86.803 9.2339 86.803 9.65057C86.803 10.072 86.642 10.4342 86.32 10.7372C86.0028 11.0355 85.6193 11.1847 85.1695 11.1847ZM97.9755 15.7017L95.2056 15.8722C95.1583 15.6354 95.0565 15.4223 94.9002 15.233C94.744 15.0388 94.538 14.8849 94.2823 14.7713C94.0314 14.6529 93.7307 14.5938 93.3803 14.5938C92.9116 14.5938 92.5162 14.6932 92.1942 14.892C91.8723 15.0862 91.7113 15.3466 91.7113 15.6733C91.7113 15.9337 91.8155 16.1539 92.0238 16.3338C92.2321 16.5137 92.5896 16.6581 93.0962 16.767L95.0707 17.1648C96.1313 17.3826 96.922 17.733 97.4428 18.2159C97.9637 18.6989 98.2241 19.3333 98.2241 20.1193C98.2241 20.8343 98.0134 21.4616 97.592 22.0014C97.1753 22.5412 96.6024 22.9626 95.8732 23.2656C95.1488 23.5639 94.3131 23.7131 93.3661 23.7131C91.922 23.7131 90.7714 23.4124 89.9144 22.8111C89.0621 22.205 88.5626 21.3812 88.4158 20.3395L91.3917 20.1832C91.4817 20.6236 91.6995 20.9598 92.0451 21.1918C92.3907 21.419 92.8335 21.5327 93.3732 21.5327C93.9035 21.5327 94.3297 21.4309 94.6516 21.2273C94.9783 21.0189 95.1441 20.7514 95.1488 20.4247C95.1441 20.1501 95.0281 19.9252 94.8008 19.75C94.5735 19.5701 94.2231 19.4328 93.7496 19.3381L91.8604 18.9616C90.7951 18.7486 90.002 18.3793 89.4812 17.8537C88.9651 17.3281 88.707 16.6581 88.707 15.8438C88.707 15.143 88.8964 14.5393 89.2752 14.0327C89.6587 13.526 90.1961 13.1354 90.8874 12.8608C91.5835 12.5862 92.3978 12.4489 93.3306 12.4489C94.7085 12.4489 95.7927 12.7401 96.5835 13.3224C97.3789 13.9048 97.8429 14.6979 97.9755 15.7017ZM104.415 23.5V8.95455H107.49V14.956H113.733V8.95455H116.801V23.5H113.733V17.4915H107.49V23.5H104.415ZM124.052 23.7131C122.929 23.7131 121.964 23.4858 121.154 23.0312C120.349 22.572 119.729 21.9233 119.293 21.0852C118.858 20.2424 118.64 19.2457 118.64 18.0952C118.64 16.973 118.858 15.9882 119.293 15.1406C119.729 14.2931 120.342 13.6326 121.133 13.1591C121.928 12.6856 122.861 12.4489 123.931 12.4489C124.651 12.4489 125.321 12.5649 125.941 12.7969C126.566 13.0241 127.11 13.3674 127.574 13.8267C128.043 14.286 128.408 14.8636 128.668 15.5597C128.929 16.2509 129.059 17.0606 129.059 17.9886V18.8196H119.847V16.9446H126.211C126.211 16.509 126.116 16.1231 125.927 15.7869C125.737 15.4508 125.474 15.188 125.138 14.9986C124.807 14.8045 124.421 14.7074 123.981 14.7074C123.521 14.7074 123.114 14.8139 122.759 15.027C122.409 15.2353 122.134 15.517 121.935 15.8722C121.736 16.2225 121.634 16.6132 121.63 17.044V18.8267C121.63 19.3665 121.729 19.8329 121.928 20.2259C122.132 20.6188 122.418 20.9219 122.787 21.1349C123.157 21.348 123.595 21.4545 124.101 21.4545C124.438 21.4545 124.745 21.4072 125.025 21.3125C125.304 21.2178 125.543 21.0758 125.742 20.8864C125.941 20.697 126.092 20.465 126.197 20.1903L128.995 20.375C128.853 21.0473 128.562 21.6345 128.121 22.1364C127.686 22.6335 127.122 23.0218 126.431 23.3011C125.744 23.5758 124.951 23.7131 124.052 23.7131ZM133.859 8.95455V23.5H130.833V8.95455H133.859ZM136.082 27.5909V12.5909H139.065V14.4233H139.2C139.333 14.1297 139.525 13.8314 139.776 13.5284C140.031 13.2206 140.363 12.965 140.77 12.7614C141.182 12.553 141.693 12.4489 142.304 12.4489C143.099 12.4489 143.833 12.6572 144.506 13.0739C145.178 13.4858 145.715 14.1084 146.118 14.9418C146.52 15.7704 146.722 16.8097 146.722 18.0597C146.722 19.2765 146.525 20.304 146.132 21.142C145.744 21.9754 145.214 22.6075 144.541 23.0384C143.874 23.4645 143.125 23.6776 142.297 23.6776C141.71 23.6776 141.21 23.5805 140.798 23.3864C140.391 23.1922 140.057 22.9484 139.797 22.6548C139.536 22.3565 139.338 22.0559 139.2 21.7528H139.108V27.5909H136.082ZM139.044 18.0455C139.044 18.6941 139.134 19.2599 139.314 19.7429C139.494 20.2259 139.754 20.6023 140.095 20.8722C140.436 21.1373 140.85 21.2699 141.338 21.2699C141.83 21.2699 142.247 21.1349 142.588 20.8651C142.929 20.5904 143.187 20.2116 143.362 19.7287C143.542 19.241 143.632 18.6799 143.632 18.0455C143.632 17.4157 143.545 16.8617 143.369 16.3835C143.194 15.9053 142.936 15.5312 142.595 15.2614C142.254 14.9915 141.835 14.8565 141.338 14.8565C140.846 14.8565 140.429 14.9867 140.088 15.2472C139.752 15.5076 139.494 15.8769 139.314 16.3551C139.134 16.8333 139.044 17.3968 139.044 18.0455ZM152.559 23.6776C151.73 23.6776 150.979 23.4645 150.307 23.0384C149.639 22.6075 149.109 21.9754 148.716 21.142C148.328 20.304 148.134 19.2765 148.134 18.0597C148.134 16.8097 148.335 15.7704 148.738 14.9418C149.14 14.1084 149.675 13.4858 150.343 13.0739C151.015 12.6572 151.751 12.4489 152.551 12.4489C153.162 12.4489 153.671 12.553 154.078 12.7614C154.49 12.965 154.822 13.2206 155.073 13.5284C155.328 13.8314 155.523 14.1297 155.655 14.4233H155.747V8.95455H158.766V23.5H155.783V21.7528H155.655C155.513 22.0559 155.312 22.3565 155.051 22.6548C154.796 22.9484 154.462 23.1922 154.05 23.3864C153.643 23.5805 153.146 23.6776 152.559 23.6776ZM153.517 21.2699C154.005 21.2699 154.417 21.1373 154.753 20.8722C155.094 20.6023 155.354 20.2259 155.534 19.7429C155.719 19.2599 155.811 18.6941 155.811 18.0455C155.811 17.3968 155.721 16.8333 155.541 16.3551C155.362 15.8769 155.101 15.5076 154.76 15.2472C154.419 14.9867 154.005 14.8565 153.517 14.8565C153.02 14.8565 152.601 14.9915 152.26 15.2614C151.919 15.5312 151.661 15.9053 151.486 16.3835C151.311 16.8617 151.223 17.4157 151.223 18.0455C151.223 18.6799 151.311 19.241 151.486 19.7287C151.666 20.2116 151.924 20.5904 152.26 20.8651C152.601 21.1349 153.02 21.2699 153.517 21.2699ZM166.025 23.7131C164.903 23.7131 163.937 23.4858 163.127 23.0312C162.322 22.572 161.702 21.9233 161.267 21.0852C160.831 20.2424 160.613 19.2457 160.613 18.0952C160.613 16.973 160.831 15.9882 161.267 15.1406C161.702 14.2931 162.315 13.6326 163.106 13.1591C163.901 12.6856 164.834 12.4489 165.904 12.4489C166.624 12.4489 167.294 12.5649 167.914 12.7969C168.539 13.0241 169.084 13.3674 169.548 13.8267C170.017 14.286 170.381 14.8636 170.642 15.5597C170.902 16.2509 171.032 17.0606 171.032 17.9886V18.8196H161.821V16.9446H168.184C168.184 16.509 168.089 16.1231 167.9 15.7869C167.711 15.4508 167.448 15.188 167.112 14.9986C166.78 14.8045 166.394 14.7074 165.954 14.7074C165.495 14.7074 165.088 14.8139 164.732 15.027C164.382 15.2353 164.107 15.517 163.909 15.8722C163.71 16.2225 163.608 16.6132 163.603 17.044V18.8267C163.603 19.3665 163.703 19.8329 163.901 20.2259C164.105 20.6188 164.392 20.9219 164.761 21.1349C165.13 21.348 165.568 21.4545 166.075 21.4545C166.411 21.4545 166.719 21.4072 166.998 21.3125C167.277 21.2178 167.517 21.0758 167.715 20.8864C167.914 20.697 168.066 20.465 168.17 20.1903L170.968 20.375C170.826 21.0473 170.535 21.6345 170.095 22.1364C169.659 22.6335 169.096 23.0218 168.404 23.3011C167.718 23.5758 166.925 23.7131 166.025 23.7131ZM181.883 15.7017L179.113 15.8722C179.066 15.6354 178.964 15.4223 178.808 15.233C178.652 15.0388 178.446 14.8849 178.19 14.7713C177.939 14.6529 177.639 14.5938 177.288 14.5938C176.819 14.5938 176.424 14.6932 176.102 14.892C175.78 15.0862 175.619 15.3466 175.619 15.6733C175.619 15.9337 175.723 16.1539 175.932 16.3338C176.14 16.5137 176.497 16.6581 177.004 16.767L178.978 17.1648C180.039 17.3826 180.83 17.733 181.351 18.2159C181.871 18.6989 182.132 19.3333 182.132 20.1193C182.132 20.8343 181.921 21.4616 181.5 22.0014C181.083 22.5412 180.51 22.9626 179.781 23.2656C179.057 23.5639 178.221 23.7131 177.274 23.7131C175.83 23.7131 174.679 23.4124 173.822 22.8111C172.97 22.205 172.47 21.3812 172.324 20.3395L175.299 20.1832C175.389 20.6236 175.607 20.9598 175.953 21.1918C176.299 21.419 176.741 21.5327 177.281 21.5327C177.811 21.5327 178.237 21.4309 178.559 21.2273C178.886 21.0189 179.052 20.7514 179.057 20.4247C179.052 20.1501 178.936 19.9252 178.709 19.75C178.481 19.5701 178.131 19.4328 177.657 19.3381L175.768 18.9616C174.703 18.7486 173.91 18.3793 173.389 17.8537C172.873 17.3281 172.615 16.6581 172.615 15.8438C172.615 15.143 172.804 14.5393 173.183 14.0327C173.567 13.526 174.104 13.1354 174.795 12.8608C175.491 12.5862 176.306 12.4489 177.238 12.4489C178.616 12.4489 179.701 12.7401 180.491 13.3224C181.287 13.9048 181.751 14.6979 181.883 15.7017ZM186.579 20.3608L186.586 16.7315H187.026L190.52 12.5909H193.993L189.299 18.0739H188.581L186.579 20.3608ZM183.837 23.5V8.95455H186.863V23.5H183.837ZM190.655 23.5L187.445 18.7486L189.462 16.6108L194.199 23.5H190.655Z" fill="#005597"/>
</svg>
