<svg width="23" height="23" viewBox="0 0 23 23" fill="none" xmlns="http://www.w3.org/2000/svg">
<path opacity="0.3" d="M11.5003 10.5417C9.38323 10.5417 7.66699 8.82543 7.66699 6.70833C7.66699 4.59124 9.38323 2.875 11.5003 2.875C13.6174 2.875 15.3337 4.59124 15.3337 6.70833C15.3337 8.82543 13.6174 10.5417 11.5003 10.5417Z" fill="#6D6D80"/>
<path d="M2.87562 19.3577C3.24708 14.7839 6.95933 12.4585 11.484 12.4585C16.0724 12.4585 19.8422 14.6561 20.123 19.3585C20.1342 19.5458 20.123 20.1252 19.4031 20.1252C15.8519 20.1252 10.5749 20.1252 3.57219 20.1252C3.33185 20.1252 2.85539 19.6069 2.87562 19.3577Z" fill="#6D6D80"/>
</svg>
