<svg width="77" height="77" viewBox="0 0 77 77" fill="none" xmlns="http://www.w3.org/2000/svg">
<path d="M52.7395 23H63.4283C66.2461 23 67.9484 26.2638 66.4342 28.7492L41.764 69.1923C40.2946 71.6026 36.9347 71.6026 35.4609 69.1923L34.9278 68.3167L30 60.2369L52.7395 23.0044V23Z" fill="#FFF"/>
<path d="M31.3211 52.2643C29.9002 54.5786 26.6545 54.5786 25.2336 52.2643L0.602335 12.0824C-1.00919 9.45142 0.802072 6 3.7936 6H14.357L37 43.0203L31.3256 52.2687L31.3211 52.2643Z" fill="#FFF"/>
<path d="M76.4131 11.893L72.0527 19H27.0789L22.5556 11.6165C21.0669 9.18411 22.745 6 25.511 6H73.3167C76.2237 6 77.981 9.34397 76.4131 11.893Z" fill="#FFF"/>
</svg>
