<svg width="44" height="44" viewBox="0 0 44 44" fill="none" xmlns="http://www.w3.org/2000/svg">
<path d="M18 2.3094C20.4752 0.880338 23.5248 0.880339 26 2.3094L37.0526 8.6906C39.5278 10.1197 41.0526 12.7607 41.0526 15.6188V28.3812C41.0526 31.2393 39.5278 33.8803 37.0526 35.3094L26 41.6906C23.5248 43.1197 20.4752 43.1197 18 41.6906L6.94744 35.3094C4.47223 33.8803 2.94744 31.2393 2.94744 28.3812V15.6188C2.94744 12.7607 4.47223 10.1197 6.94744 8.6906L18 2.3094Z" fill="white"/>
<path d="M18.25 2.74241C20.5705 1.40267 23.4295 1.40267 25.75 2.74241L36.8026 9.12361C39.1231 10.4634 40.5526 12.9393 40.5526 15.6188V28.3812C40.5526 31.0607 39.1231 33.5366 36.8026 34.8764L25.75 41.2576C23.4295 42.5973 20.5705 42.5973 18.25 41.2576L7.19744 34.8764C4.87693 33.5366 3.44744 31.0607 3.44744 28.3812V15.6188C3.44744 12.9393 4.87693 10.4634 7.19744 9.12361L18.25 2.74241Z" stroke="#FF6F1E" stroke-opacity="0.2"/>
<path d="M22 20.3125C22.3107 20.3125 22.5625 20.5643 22.5625 20.875V22.5625H24.25C24.5607 22.5625 24.8125 22.8143 24.8125 23.125C24.8125 23.4357 24.5607 23.6875 24.25 23.6875H22.5625V25.375C22.5625 25.6857 22.3107 25.9375 22 25.9375C21.6893 25.9375 21.4375 25.6857 21.4375 25.375V23.6875H19.75C19.4393 23.6875 19.1875 23.4357 19.1875 23.125C19.1875 22.8143 19.4393 22.5625 19.75 22.5625H21.4375V20.875C21.4375 20.5643 21.6893 20.3125 22 20.3125Z" fill="#FF6F1E"/>
<path d="M28.75 18.0625V28.75C28.75 29.9926 27.7426 31 26.5 31H17.5C16.2574 31 15.25 29.9926 15.25 28.75V15.25C15.25 14.0074 16.2574 13 17.5 13H23.6875L28.75 18.0625ZM25.375 18.0625C24.443 18.0625 23.6875 17.307 23.6875 16.375V14.125H17.5C16.8787 14.125 16.375 14.6287 16.375 15.25V28.75C16.375 29.3713 16.8787 29.875 17.5 29.875H26.5C27.1213 29.875 27.625 29.3713 27.625 28.75V18.0625H25.375Z" fill="#FF6F1E"/>
</svg>
